<svg width="33" height="32" viewBox="0 0 33 32" fill="none" xmlns="http://www.w3.org/2000/svg">
<path d="M27.5 22.6669V15.2696C27.5 14.5572 27.4994 14.2008 27.41 13.8692C27.3309 13.5754 27.2009 13.2974 27.025 13.0462C26.8266 12.7627 26.5506 12.5276 25.9977 12.0584L19.3977 6.45843C18.3711 5.58739 17.8578 5.15208 17.2802 4.98643C16.7711 4.84046 16.2286 4.84046 15.7196 4.98643C15.1423 5.15196 14.6298 5.58685 13.6047 6.45658L7.00256 12.0584C6.44963 12.5276 6.17381 12.7627 5.97534 13.0462C5.79946 13.2974 5.6685 13.5754 5.58934 13.8692C5.5 14.2008 5.5 14.5572 5.5 15.2696V22.6669C5.5 23.9094 5.5 24.5304 5.70933 25.0205C5.98844 25.6739 6.52344 26.1936 7.19727 26.4643C7.70264 26.6673 8.34331 26.6673 9.62465 26.6673C10.906 26.6673 11.5474 26.6673 12.0527 26.4643C12.7266 26.1936 13.2614 25.674 13.5405 25.0206C13.7499 24.5305 13.75 23.9093 13.75 22.6668V21.3334C13.75 19.8607 14.9812 18.6668 16.5 18.6668C18.0188 18.6668 19.25 19.8607 19.25 21.3334V22.6668C19.25 23.9093 19.25 24.5305 19.4593 25.0206C19.7384 25.674 20.2734 26.1936 20.9473 26.4643C21.4526 26.6673 22.0933 26.6673 23.3746 26.6673C24.656 26.6673 25.2974 26.6673 25.8027 26.4643C26.4766 26.1936 27.0114 25.6739 27.2905 25.0205C27.4999 24.5304 27.5 23.9094 27.5 22.6669Z" stroke="#E8AF3B" stroke-width="2" stroke-linecap="round" stroke-linejoin="round"/>
</svg>
